# xmcd
#
# Track frame offsets:
#	150
#	32357
#	57744
#	79008
#	106312
#
# Disc length: 1807 seconds
# Revision: 0
# Processed by: cddbd v1.5.2PL0 Copyright (c) Steve Scherf et al.
# Submitted via: dBpowerAMP V12.0
#
DISCID=36070d05
DTITLE=Martha Scanlan - Tongue River Stories: Autumn
DYEAR=2011
DGENRE=Folk
TTITLE0=Angle Of Repose
TTITLE1=The Meadow
TTITLE2=Guardian Angel
TTITLE3=Invisible Man
TTITLE4=October
EXTD=
EXTT0=
EXTT1=
EXTT2=
EXTT3=
EXTT4=
PLAYORDER=
